<svg width="141" height="106" viewBox="0 0 141 106" fill="none" xmlns="http://www.w3.org/2000/svg">
<mask id="path-1-outside-1_7_241" maskUnits="userSpaceOnUse" x="22" y="7" width="119" height="52" fill="black">
<rect fill="white" x="22" y="7" width="119" height="52"/>
<path d="M41.624 47.216V40.816H50.136V46.192C50.136 51.824 47.4907 54.64 42.2 54.64H34.136C28.8453 54.64 26.2 51.824 26.2 46.192V20.4C26.2 14.768 28.8453 11.952 34.136 11.952H42.2C47.4907 11.952 50.136 14.768 50.136 20.4V24.304H41.624V19.312C41.624 18.9707 41.496 18.672 41.24 18.416C41.0267 18.16 40.7493 18.032 40.408 18.032H36.376C36.0347 18.032 35.736 18.16 35.48 18.416C35.2667 18.672 35.16 18.9707 35.16 19.312V47.216C35.16 47.5573 35.2667 47.856 35.48 48.112C35.736 48.368 36.0347 48.496 36.376 48.496H40.408C40.7493 48.496 41.0267 48.368 41.24 48.112C41.496 47.856 41.624 47.5573 41.624 47.216ZM78.2965 30.576V46.192C78.2965 51.824 75.6512 54.64 70.3605 54.64H63.1285C57.8378 54.64 55.1925 51.824 55.1925 46.192V30.576C55.1925 24.944 57.8378 22.128 63.1285 22.128H70.3605C75.6512 22.128 78.2965 24.944 78.2965 30.576ZM69.7205 47.984V28.72C69.7205 28.3787 69.5925 28.08 69.3365 27.824C69.1232 27.568 68.8458 27.44 68.5045 27.44H64.9845C64.6432 27.44 64.3445 27.568 64.0885 27.824C63.8752 28.08 63.7685 28.3787 63.7685 28.72V47.984C63.7685 48.3253 63.8752 48.624 64.0885 48.88C64.3445 49.136 64.6432 49.264 64.9845 49.264H68.5045C68.8458 49.264 69.1232 49.136 69.3365 48.88C69.5925 48.624 69.7205 48.3253 69.7205 47.984ZM93.41 22.128C95.586 22.128 97.3353 22.64 98.658 23.664V12.592H107.234V54H100.002V51.696C98.6793 53.6587 96.482 54.64 93.41 54.64H92.066C86.7753 54.64 84.13 51.824 84.13 46.192V30.576C84.13 24.944 86.7753 22.128 92.066 22.128H93.41ZM98.658 47.216V29.552C98.658 29.2107 98.53 28.912 98.274 28.656C98.0607 28.4 97.7833 28.272 97.442 28.272H93.922C93.5807 28.272 93.282 28.4 93.026 28.656C92.8127 28.912 92.706 29.2107 92.706 29.552V47.216C92.706 47.5573 92.8127 47.856 93.026 48.112C93.282 48.368 93.5807 48.496 93.922 48.496H97.442C97.7833 48.496 98.0607 48.368 98.274 48.112C98.53 47.856 98.658 47.5573 98.658 47.216ZM128.236 22.128C133.526 22.128 136.172 24.944 136.172 30.576V40.688H121.644V47.216C121.644 47.5573 121.75 47.856 121.964 48.112C122.22 48.368 122.518 48.496 122.86 48.496H126.38C126.721 48.496 126.998 48.368 127.212 48.112C127.468 47.856 127.596 47.5573 127.596 47.216V43.76H136.172V46.192C136.172 51.824 133.526 54.64 128.236 54.64H121.004C115.713 54.64 113.068 51.824 113.068 46.192V30.576C113.068 24.944 115.713 22.128 121.004 22.128H128.236ZM121.644 35.056H127.596V29.296C127.596 28.9547 127.468 28.656 127.212 28.4C126.998 28.144 126.721 28.016 126.38 28.016H122.86C122.518 28.016 122.22 28.144 121.964 28.4C121.75 28.656 121.644 28.9547 121.644 29.296V35.056Z"/>
</mask>
<path d="M41.624 47.216V40.816H50.136V46.192C50.136 51.824 47.4907 54.64 42.2 54.64H34.136C28.8453 54.64 26.2 51.824 26.2 46.192V20.4C26.2 14.768 28.8453 11.952 34.136 11.952H42.2C47.4907 11.952 50.136 14.768 50.136 20.4V24.304H41.624V19.312C41.624 18.9707 41.496 18.672 41.24 18.416C41.0267 18.16 40.7493 18.032 40.408 18.032H36.376C36.0347 18.032 35.736 18.16 35.48 18.416C35.2667 18.672 35.16 18.9707 35.16 19.312V47.216C35.16 47.5573 35.2667 47.856 35.48 48.112C35.736 48.368 36.0347 48.496 36.376 48.496H40.408C40.7493 48.496 41.0267 48.368 41.24 48.112C41.496 47.856 41.624 47.5573 41.624 47.216ZM78.2965 30.576V46.192C78.2965 51.824 75.6512 54.64 70.3605 54.64H63.1285C57.8378 54.64 55.1925 51.824 55.1925 46.192V30.576C55.1925 24.944 57.8378 22.128 63.1285 22.128H70.3605C75.6512 22.128 78.2965 24.944 78.2965 30.576ZM69.7205 47.984V28.72C69.7205 28.3787 69.5925 28.08 69.3365 27.824C69.1232 27.568 68.8458 27.44 68.5045 27.44H64.9845C64.6432 27.44 64.3445 27.568 64.0885 27.824C63.8752 28.08 63.7685 28.3787 63.7685 28.72V47.984C63.7685 48.3253 63.8752 48.624 64.0885 48.88C64.3445 49.136 64.6432 49.264 64.9845 49.264H68.5045C68.8458 49.264 69.1232 49.136 69.3365 48.88C69.5925 48.624 69.7205 48.3253 69.7205 47.984ZM93.41 22.128C95.586 22.128 97.3353 22.64 98.658 23.664V12.592H107.234V54H100.002V51.696C98.6793 53.6587 96.482 54.64 93.41 54.64H92.066C86.7753 54.64 84.13 51.824 84.13 46.192V30.576C84.13 24.944 86.7753 22.128 92.066 22.128H93.41ZM98.658 47.216V29.552C98.658 29.2107 98.53 28.912 98.274 28.656C98.0607 28.4 97.7833 28.272 97.442 28.272H93.922C93.5807 28.272 93.282 28.4 93.026 28.656C92.8127 28.912 92.706 29.2107 92.706 29.552V47.216C92.706 47.5573 92.8127 47.856 93.026 48.112C93.282 48.368 93.5807 48.496 93.922 48.496H97.442C97.7833 48.496 98.0607 48.368 98.274 48.112C98.53 47.856 98.658 47.5573 98.658 47.216ZM128.236 22.128C133.526 22.128 136.172 24.944 136.172 30.576V40.688H121.644V47.216C121.644 47.5573 121.75 47.856 121.964 48.112C122.22 48.368 122.518 48.496 122.86 48.496H126.38C126.721 48.496 126.998 48.368 127.212 48.112C127.468 47.856 127.596 47.5573 127.596 47.216V43.76H136.172V46.192C136.172 51.824 133.526 54.64 128.236 54.64H121.004C115.713 54.64 113.068 51.824 113.068 46.192V30.576C113.068 24.944 115.713 22.128 121.004 22.128H128.236ZM121.644 35.056H127.596V29.296C127.596 28.9547 127.468 28.656 127.212 28.4C126.998 28.144 126.721 28.016 126.38 28.016H122.86C122.518 28.016 122.22 28.144 121.964 28.4C121.75 28.656 121.644 28.9547 121.644 29.296V35.056Z" fill="#F33641"/>
<path d="M41.624 40.816V36.816H37.624V40.816H41.624ZM50.136 40.816H54.136V36.816H50.136V40.816ZM50.136 24.304V28.304H54.136V24.304H50.136ZM41.624 24.304H37.624V28.304H41.624V24.304ZM41.24 18.416L38.1671 20.9767L38.2833 21.1161L38.4116 21.2444L41.24 18.416ZM35.48 18.416L32.6516 15.5876L32.5233 15.7159L32.4071 15.8553L35.48 18.416ZM35.48 48.112L32.4071 50.6727L32.5233 50.8121L32.6516 50.9404L35.48 48.112ZM41.24 48.112L38.4116 45.2836L38.2833 45.4119L38.1671 45.5513L41.24 48.112ZM45.624 47.216V40.816H37.624V47.216H45.624ZM41.624 44.816H50.136V36.816H41.624V44.816ZM46.136 40.816V46.192H54.136V40.816H46.136ZM46.136 46.192C46.136 48.4515 45.6005 49.4019 45.2366 49.7893C44.9169 50.1297 44.1626 50.64 42.2 50.64V58.64C45.5281 58.64 48.7418 57.7423 51.0674 55.2667C53.3488 52.8381 54.136 49.5645 54.136 46.192H46.136ZM42.2 50.64H34.136V58.64H42.2V50.64ZM34.136 50.64C32.1734 50.64 31.4191 50.1297 31.0994 49.7893C30.7355 49.4019 30.2 48.4515 30.2 46.192H22.2C22.2 49.5645 22.9872 52.8381 25.2686 55.2667C27.5942 57.7423 30.8079 58.64 34.136 58.64V50.64ZM30.2 46.192V20.4H22.2V46.192H30.2ZM30.2 20.4C30.2 18.1405 30.7355 17.1901 31.0994 16.8027C31.4191 16.4623 32.1734 15.952 34.136 15.952V7.952C30.8079 7.952 27.5942 8.84967 25.2686 11.3253C22.9872 13.7539 22.2 17.0275 22.2 20.4H30.2ZM34.136 15.952H42.2V7.952H34.136V15.952ZM42.2 15.952C44.1626 15.952 44.9169 16.4623 45.2366 16.8027C45.6005 17.1901 46.136 18.1405 46.136 20.4H54.136C54.136 17.0275 53.3488 13.7539 51.0674 11.3253C48.7418 8.84967 45.5281 7.952 42.2 7.952V15.952ZM46.136 20.4V24.304H54.136V20.4H46.136ZM50.136 20.304H41.624V28.304H50.136V20.304ZM45.624 24.304V19.312H37.624V24.304H45.624ZM45.624 19.312C45.624 17.8405 45.0241 16.5432 44.0684 15.5876L38.4116 21.2444C38.2208 21.0536 38.0095 20.7766 37.8514 20.4077C37.6913 20.0341 37.624 19.6552 37.624 19.312H45.624ZM44.3129 15.8552C43.3185 14.662 41.9031 14.032 40.408 14.032V22.032C40.0683 22.032 39.6414 21.9655 39.1958 21.7598C38.7475 21.5529 38.4056 21.2629 38.1671 20.9767L44.3129 15.8552ZM40.408 14.032H36.376V22.032H40.408V14.032ZM36.376 14.032C34.9045 14.032 33.6072 14.6319 32.6516 15.5876L38.3084 21.2444C38.1176 21.4352 37.8406 21.6465 37.4717 21.8046C37.0981 21.9647 36.7192 22.032 36.376 22.032V14.032ZM32.4071 15.8553C31.5791 16.8489 31.16 18.0597 31.16 19.312H39.16C39.16 19.5647 39.1192 19.8631 39.007 20.1773C38.8943 20.4929 38.7318 20.7621 38.5529 20.9767L32.4071 15.8553ZM31.16 19.312V47.216H39.16V19.312H31.16ZM31.16 47.216C31.16 48.4683 31.579 49.6791 32.4071 50.6727L38.5529 45.5513C38.7318 45.7659 38.8943 46.0351 39.007 46.3507C39.1192 46.6649 39.16 46.9633 39.16 47.216H31.16ZM32.6516 50.9404C33.6072 51.8961 34.9045 52.496 36.376 52.496V44.496C36.7192 44.496 37.0981 44.5633 37.4717 44.7234C37.8406 44.8815 38.1176 45.0928 38.3084 45.2836L32.6516 50.9404ZM36.376 52.496H40.408V44.496H36.376V52.496ZM40.408 52.496C41.9032 52.496 43.3185 51.866 44.3129 50.6727L38.1671 45.5513C38.4056 45.2651 38.7475 44.9751 39.1958 44.7682C39.6414 44.5625 40.0683 44.496 40.408 44.496V52.496ZM44.0684 50.9404C45.0241 49.9848 45.624 48.6875 45.624 47.216H37.624C37.624 46.8728 37.6913 46.4939 37.8514 46.1203C38.0095 45.7514 38.2208 45.4744 38.4116 45.2836L44.0684 50.9404ZM69.3365 27.824L66.2636 30.3847L66.3798 30.5241L66.5081 30.6524L69.3365 27.824ZM64.0885 27.824L61.2601 24.9956L61.1318 25.1239L61.0156 25.2633L64.0885 27.824ZM64.0885 48.88L61.0156 51.4407L61.1318 51.5801L61.2601 51.7084L64.0885 48.88ZM69.3365 48.88L66.5081 46.0516L66.3798 46.1799L66.2636 46.3193L69.3365 48.88ZM74.2965 30.576V46.192H82.2965V30.576H74.2965ZM74.2965 46.192C74.2965 48.4515 73.761 49.4019 73.3971 49.7893C73.0774 50.1297 72.3231 50.64 70.3605 50.64V58.64C73.6886 58.64 76.9023 57.7423 79.2279 55.2667C81.5093 52.8381 82.2965 49.5645 82.2965 46.192H74.2965ZM70.3605 50.64H63.1285V58.64H70.3605V50.64ZM63.1285 50.64C61.1659 50.64 60.4116 50.1297 60.0919 49.7893C59.728 49.4019 59.1925 48.4515 59.1925 46.192H51.1925C51.1925 49.5645 51.9797 52.8381 54.2611 55.2667C56.5867 57.7423 59.8004 58.64 63.1285 58.64V50.64ZM59.1925 46.192V30.576H51.1925V46.192H59.1925ZM59.1925 30.576C59.1925 28.3165 59.728 27.3661 60.0919 26.9787C60.4116 26.6383 61.1659 26.128 63.1285 26.128V18.128C59.8004 18.128 56.5867 19.0257 54.2611 21.5013C51.9797 23.9299 51.1925 27.2035 51.1925 30.576H59.1925ZM63.1285 26.128H70.3605V18.128H63.1285V26.128ZM70.3605 26.128C72.3231 26.128 73.0774 26.6383 73.3971 26.9787C73.761 27.3661 74.2965 28.3165 74.2965 30.576H82.2965C82.2965 27.2035 81.5093 23.9299 79.2279 21.5013C76.9023 19.0257 73.6886 18.128 70.3605 18.128V26.128ZM73.7205 47.984V28.72H65.7205V47.984H73.7205ZM73.7205 28.72C73.7205 27.2485 73.1206 25.9512 72.1649 24.9956L66.5081 30.6524C66.3173 30.4616 66.106 30.1846 65.9479 29.8157C65.7878 29.4421 65.7205 29.0632 65.7205 28.72H73.7205ZM72.4094 25.2633C71.415 24.07 69.9997 23.44 68.5045 23.44V31.44C68.1647 31.44 67.7379 31.3735 67.2923 31.1678C66.844 30.9609 66.5021 30.6709 66.2636 30.3847L72.4094 25.2633ZM68.5045 23.44H64.9845V31.44H68.5045V23.44ZM64.9845 23.44C63.513 23.44 62.2157 24.0399 61.2601 24.9956L66.9169 30.6524C66.7261 30.8432 66.4491 31.0545 66.0802 31.2126C65.7066 31.3727 65.3277 31.44 64.9845 31.44V23.44ZM61.0156 25.2633C60.1875 26.2569 59.7685 27.4677 59.7685 28.72H67.7685C67.7685 28.9727 67.7277 29.2711 67.6155 29.5853C67.5028 29.9009 67.3403 30.1701 67.1614 30.3847L61.0156 25.2633ZM59.7685 28.72V47.984H67.7685V28.72H59.7685ZM59.7685 47.984C59.7685 49.2363 60.1875 50.4471 61.0156 51.4407L67.1614 46.3193C67.3403 46.5339 67.5028 46.8031 67.6155 47.1187C67.7277 47.4329 67.7685 47.7313 67.7685 47.984H59.7685ZM61.2601 51.7084C62.2157 52.6641 63.513 53.264 64.9845 53.264V45.264C65.3277 45.264 65.7066 45.3313 66.0802 45.4914C66.4491 45.6495 66.7261 45.8608 66.9169 46.0516L61.2601 51.7084ZM64.9845 53.264H68.5045V45.264H64.9845V53.264ZM68.5045 53.264C69.9997 53.264 71.415 52.634 72.4094 51.4407L66.2636 46.3193C66.5021 46.0331 66.844 45.7431 67.2923 45.5362C67.7379 45.3305 68.1648 45.264 68.5045 45.264V53.264ZM72.1649 51.7084C73.1206 50.7528 73.7205 49.4556 73.7205 47.984H65.7205C65.7205 47.6408 65.7878 47.2619 65.9479 46.8883C66.106 46.5194 66.3173 46.2424 66.5081 46.0516L72.1649 51.7084ZM98.658 23.664L96.2093 26.8269L102.658 31.8194V23.664H98.658ZM98.658 12.592V8.592H94.658V12.592H98.658ZM107.234 12.592H111.234V8.592H107.234V12.592ZM107.234 54V58H111.234V54H107.234ZM100.002 54H96.002V58H100.002V54ZM100.002 51.696H104.002V38.603L96.6849 49.4606L100.002 51.696ZM98.274 28.656L95.2011 31.2167L95.3173 31.3561L95.4456 31.4844L98.274 28.656ZM93.026 28.656L90.1976 25.8276L90.0693 25.9559L89.9531 26.0953L93.026 28.656ZM93.026 48.112L89.9531 50.6727L90.0693 50.8121L90.1976 50.9404L93.026 48.112ZM98.274 48.112L95.4456 45.2836L95.3173 45.4119L95.2011 45.5513L98.274 48.112ZM93.41 26.128C94.9677 26.128 95.7736 26.4896 96.2093 26.8269L101.107 20.5011C98.8971 18.7904 96.2043 18.128 93.41 18.128V26.128ZM102.658 23.664V12.592H94.658V23.664H102.658ZM98.658 16.592H107.234V8.592H98.658V16.592ZM103.234 12.592V54H111.234V12.592H103.234ZM107.234 50H100.002V58H107.234V50ZM104.002 54V51.696H96.002V54H104.002ZM96.6849 49.4606C96.323 49.9976 95.5943 50.64 93.41 50.64V58.64C97.3697 58.64 101.036 57.3197 103.319 53.9314L96.6849 49.4606ZM93.41 50.64H92.066V58.64H93.41V50.64ZM92.066 50.64C90.1034 50.64 89.3491 50.1297 89.0294 49.7893C88.6655 49.4019 88.13 48.4515 88.13 46.192H80.13C80.13 49.5645 80.9172 52.8381 83.1986 55.2667C85.5242 57.7423 88.7379 58.64 92.066 58.64V50.64ZM88.13 46.192V30.576H80.13V46.192H88.13ZM88.13 30.576C88.13 28.3165 88.6655 27.3661 89.0294 26.9787C89.3491 26.6383 90.1034 26.128 92.066 26.128V18.128C88.7379 18.128 85.5242 19.0257 83.1986 21.5013C80.9172 23.9299 80.13 27.2035 80.13 30.576H88.13ZM92.066 26.128H93.41V18.128H92.066V26.128ZM102.658 47.216V29.552H94.658V47.216H102.658ZM102.658 29.552C102.658 28.0804 102.058 26.7832 101.102 25.8276L95.4456 31.4844C95.2548 31.2936 95.0435 31.0166 94.8854 30.6477C94.7253 30.2741 94.658 29.8952 94.658 29.552H102.658ZM101.347 26.0953C100.353 24.902 98.9371 24.272 97.442 24.272V32.272C97.1023 32.272 96.6754 32.2055 96.2298 31.9998C95.7815 31.7929 95.4396 31.5029 95.2011 31.2167L101.347 26.0953ZM97.442 24.272H93.922V32.272H97.442V24.272ZM93.922 24.272C92.4505 24.272 91.1532 24.8719 90.1976 25.8276L95.8544 31.4844C95.6636 31.6752 95.3866 31.8865 95.0177 32.0446C94.6441 32.2047 94.2652 32.272 93.922 32.272V24.272ZM89.9531 26.0953C89.1251 27.0889 88.706 28.2997 88.706 29.552H96.706C96.706 29.8047 96.6652 30.1031 96.553 30.4173C96.4403 30.7329 96.2778 31.0021 96.0989 31.2167L89.9531 26.0953ZM88.706 29.552V47.216H96.706V29.552H88.706ZM88.706 47.216C88.706 48.4683 89.1251 49.6791 89.9531 50.6727L96.0989 45.5513C96.2778 45.7659 96.4403 46.0351 96.553 46.3507C96.6652 46.6649 96.706 46.9632 96.706 47.216H88.706ZM90.1976 50.9404C91.1532 51.8961 92.4505 52.496 93.922 52.496V44.496C94.2652 44.496 94.6441 44.5633 95.0177 44.7234C95.3866 44.8815 95.6636 45.0928 95.8544 45.2836L90.1976 50.9404ZM93.922 52.496H97.442V44.496H93.922V52.496ZM97.442 52.496C98.9372 52.496 100.353 51.866 101.347 50.6727L95.2011 45.5513C95.4396 45.2651 95.7815 44.9751 96.2298 44.7682C96.6754 44.5625 97.1022 44.496 97.442 44.496V52.496ZM101.102 50.9404C102.058 49.9848 102.658 48.6875 102.658 47.216H94.658C94.658 46.8728 94.7253 46.4939 94.8854 46.1203C95.0435 45.7514 95.2548 45.4744 95.4456 45.2836L101.102 50.9404ZM136.172 40.688V44.688H140.172V40.688H136.172ZM121.644 40.688V36.688H117.644V40.688H121.644ZM121.964 48.112L118.891 50.6727L119.007 50.8121L119.135 50.9404L121.964 48.112ZM127.212 48.112L124.383 45.2836L124.255 45.4119L124.139 45.5513L127.212 48.112ZM127.596 43.76V39.76H123.596V43.76H127.596ZM136.172 43.76H140.172V39.76H136.172V43.76ZM121.644 35.056H117.644V39.056H121.644V35.056ZM127.596 35.056V39.056H131.596V35.056H127.596ZM127.212 28.4L124.139 30.9607L124.255 31.1001L124.383 31.2284L127.212 28.4ZM121.964 28.4L119.135 25.5716L119.007 25.6999L118.891 25.8393L121.964 28.4ZM128.236 26.128C130.198 26.128 130.952 26.6383 131.272 26.9787C131.636 27.3661 132.172 28.3165 132.172 30.576H140.172C140.172 27.2035 139.384 23.9299 137.103 21.5013C134.777 19.0257 131.564 18.128 128.236 18.128V26.128ZM132.172 30.576V40.688H140.172V30.576H132.172ZM136.172 36.688H121.644V44.688H136.172V36.688ZM117.644 40.688V47.216H125.644V40.688H117.644ZM117.644 47.216C117.644 48.4683 118.063 49.6791 118.891 50.6727L125.036 45.5513C125.215 45.7659 125.378 46.0351 125.49 46.3507C125.603 46.6649 125.644 46.9632 125.644 47.216H117.644ZM119.135 50.9404C120.091 51.8961 121.388 52.496 122.859 52.496V44.496C123.203 44.496 123.582 44.5633 123.955 44.7234C124.324 44.8815 124.601 45.0928 124.792 45.2836L119.135 50.9404ZM122.859 52.496H126.38V44.496H122.859V52.496ZM126.38 52.496C127.875 52.496 129.29 51.866 130.284 50.6727L124.139 45.5513C124.377 45.2651 124.719 44.9751 125.167 44.7682C125.613 44.5625 126.04 44.496 126.38 44.496V52.496ZM130.04 50.9404C130.996 49.9848 131.596 48.6875 131.596 47.216H123.596C123.596 46.8728 123.663 46.4939 123.823 46.1203C123.981 45.7514 124.192 45.4744 124.383 45.2836L130.04 50.9404ZM131.596 47.216V43.76H123.596V47.216H131.596ZM127.596 47.76H136.172V39.76H127.596V47.76ZM132.172 43.76V46.192H140.172V43.76H132.172ZM132.172 46.192C132.172 48.4515 131.636 49.4019 131.272 49.7893C130.952 50.1297 130.198 50.64 128.236 50.64V58.64C131.564 58.64 134.777 57.7423 137.103 55.2667C139.384 52.8381 140.172 49.5645 140.172 46.192H132.172ZM128.236 50.64H121.004V58.64H128.236V50.64ZM121.004 50.64C119.041 50.64 118.287 50.1297 117.967 49.7893C117.603 49.4019 117.067 48.4515 117.067 46.192H109.067C109.067 49.5645 109.855 52.8381 112.136 55.2667C114.462 57.7423 117.675 58.64 121.004 58.64V50.64ZM117.067 46.192V30.576H109.067V46.192H117.067ZM117.067 30.576C117.067 28.3165 117.603 27.3661 117.967 26.9787C118.287 26.6383 119.041 26.128 121.004 26.128V18.128C117.675 18.128 114.462 19.0257 112.136 21.5013C109.855 23.9299 109.067 27.2035 109.067 30.576H117.067ZM121.004 26.128H128.236V18.128H121.004V26.128ZM121.644 39.056H127.596V31.056H121.644V39.056ZM131.596 35.056V29.296H123.596V35.056H131.596ZM131.596 29.296C131.596 27.8245 130.996 26.5272 130.04 25.5716L124.383 31.2284C124.192 31.0376 123.981 30.7606 123.823 30.3917C123.663 30.0181 123.596 29.6392 123.596 29.296H131.596ZM130.284 25.8393C129.29 24.646 127.875 24.016 126.38 24.016V32.016C126.04 32.016 125.613 31.9495 125.167 31.7438C124.719 31.5369 124.377 31.2469 124.139 30.9607L130.284 25.8393ZM126.38 24.016H122.859V32.016H126.38V24.016ZM122.859 24.016C121.388 24.016 120.091 24.6159 119.135 25.5716L124.792 31.2284C124.601 31.4192 124.324 31.6305 123.955 31.7886C123.582 31.9487 123.203 32.016 122.859 32.016V24.016ZM118.891 25.8393C118.063 26.8329 117.644 28.0437 117.644 29.296H125.644C125.644 29.5487 125.603 29.8471 125.49 30.1613C125.378 30.4769 125.215 30.7461 125.036 30.9607L118.891 25.8393ZM117.644 29.296V35.056H125.644V29.296H117.644Z" fill="#151515" mask="url(#path-1-outside-1_7_241)"/>
<mask id="path-3-outside-2_7_241" maskUnits="userSpaceOnUse" x="19" y="61" width="78" height="41" fill="black">
<rect fill="white" x="19" y="61" width="78" height="41"/>
<path d="M36.872 65.944H42.824L46.424 89.32L49.112 65.944H55.64L50.6 97H42.968L39.848 77.944L36.728 97H29.096L24.056 65.944H30.584L33.272 89.32L36.872 65.944ZM71.0015 73.576H76.4255V97H71.0015V95.272C70.0095 96.744 68.3615 97.48 66.0575 97.48H65.0495C61.0815 97.48 59.0975 95.368 59.0975 91.144V79.432C59.0975 75.208 61.0815 73.096 65.0495 73.096H66.0575C68.3615 73.096 70.0095 73.832 71.0015 75.304V73.576ZM69.9935 91.912V78.664C69.9935 78.408 69.8975 78.184 69.7055 77.992C69.5455 77.8 69.3375 77.704 69.0815 77.704H66.4415C66.1855 77.704 65.9615 77.8 65.7695 77.992C65.6095 78.184 65.5295 78.408 65.5295 78.664V91.912C65.5295 92.168 65.6095 92.392 65.7695 92.584C65.9615 92.776 66.1855 92.872 66.4415 92.872H69.0815C69.3375 92.872 69.5455 92.776 69.7055 92.584C69.8975 92.392 69.9935 92.168 69.9935 91.912ZM90.7846 73.096H92.0326V79.336H88.8646C87.7766 79.336 87.2326 79.896 87.2326 81.016V97H80.8006V73.576H86.6566V75.832C87.5846 74.008 88.9606 73.096 90.7846 73.096Z"/>
</mask>
<path d="M36.872 65.944H42.824L46.424 89.32L49.112 65.944H55.64L50.6 97H42.968L39.848 77.944L36.728 97H29.096L24.056 65.944H30.584L33.272 89.32L36.872 65.944ZM71.0015 73.576H76.4255V97H71.0015V95.272C70.0095 96.744 68.3615 97.48 66.0575 97.48H65.0495C61.0815 97.48 59.0975 95.368 59.0975 91.144V79.432C59.0975 75.208 61.0815 73.096 65.0495 73.096H66.0575C68.3615 73.096 70.0095 73.832 71.0015 75.304V73.576ZM69.9935 91.912V78.664C69.9935 78.408 69.8975 78.184 69.7055 77.992C69.5455 77.8 69.3375 77.704 69.0815 77.704H66.4415C66.1855 77.704 65.9615 77.8 65.7695 77.992C65.6095 78.184 65.5295 78.408 65.5295 78.664V91.912C65.5295 92.168 65.6095 92.392 65.7695 92.584C65.9615 92.776 66.1855 92.872 66.4415 92.872H69.0815C69.3375 92.872 69.5455 92.776 69.7055 92.584C69.8975 92.392 69.9935 92.168 69.9935 91.912ZM90.7846 73.096H92.0326V79.336H88.8646C87.7766 79.336 87.2326 79.896 87.2326 81.016V97H80.8006V73.576H86.6566V75.832C87.5846 74.008 88.9606 73.096 90.7846 73.096Z" fill="white"/>
<path d="M36.872 65.944V61.944H33.4409L32.9186 65.3352L36.872 65.944ZM42.824 65.944L46.7774 65.3352L46.2551 61.944H42.824V65.944ZM46.424 89.32L42.4706 89.9288L50.3978 89.7769L46.424 89.32ZM49.112 65.944V61.944H45.5456L45.1382 65.4871L49.112 65.944ZM55.64 65.944L59.5883 66.5848L60.3415 61.944H55.64V65.944ZM50.6 97V101H54.0032L54.5483 97.6408L50.6 97ZM42.968 97L39.0206 97.6463L39.5697 101H42.968V97ZM39.848 77.944L43.7954 77.2977H35.9006L39.848 77.944ZM36.728 97V101H40.1263L40.6754 97.6463L36.728 97ZM29.096 97L25.1477 97.6408L25.6928 101H29.096V97ZM24.056 65.944V61.944H19.3545L20.1077 66.5848L24.056 65.944ZM30.584 65.944L34.5578 65.4871L34.1504 61.944H30.584V65.944ZM33.272 89.32L29.2982 89.7769L37.2254 89.9288L33.272 89.32ZM36.872 69.944H42.824V61.944H36.872V69.944ZM38.8706 66.5528L42.4706 89.9288L50.3774 88.7112L46.7774 65.3352L38.8706 66.5528ZM50.3978 89.7769L53.0858 66.4009L45.1382 65.4871L42.4502 88.8631L50.3978 89.7769ZM49.112 69.944H55.64V61.944H49.112V69.944ZM51.6917 65.3032L46.6517 96.3592L54.5483 97.6408L59.5883 66.5848L51.6917 65.3032ZM50.6 93H42.968V101H50.6V93ZM46.9154 96.3537L43.7954 77.2977L35.9006 78.5903L39.0206 97.6463L46.9154 96.3537ZM35.9006 77.2977L32.7806 96.3537L40.6754 97.6463L43.7954 78.5903L35.9006 77.2977ZM36.728 93H29.096V101H36.728V93ZM33.0443 96.3592L28.0043 65.3032L20.1077 66.5848L25.1477 97.6408L33.0443 96.3592ZM24.056 69.944H30.584V61.944H24.056V69.944ZM26.6102 66.4009L29.2982 89.7769L37.2458 88.8631L34.5578 65.4871L26.6102 66.4009ZM37.2254 89.9288L40.8254 66.5528L32.9186 65.3352L29.3186 88.7112L37.2254 89.9288ZM71.0015 73.576V69.576H67.0015V73.576H71.0015ZM76.4255 73.576H80.4255V69.576H76.4255V73.576ZM76.4255 97V101H80.4255V97H76.4255ZM71.0015 97H67.0015V101H71.0015V97ZM71.0015 95.272H75.0015V82.179L67.6844 93.0366L71.0015 95.272ZM71.0015 75.304L67.6844 77.5394L75.0015 88.397V75.304H71.0015ZM69.7055 77.992L66.6326 80.5527L66.7488 80.6921L66.8771 80.8204L69.7055 77.992ZM65.7695 77.992L62.9411 75.1636L62.8128 75.2919L62.6966 75.4313L65.7695 77.992ZM65.7695 92.584L62.6966 95.1447L62.8128 95.2841L62.9411 95.4124L65.7695 92.584ZM69.7055 92.584L66.8771 89.7556L66.7488 89.8839L66.6326 90.0233L69.7055 92.584ZM71.0015 77.576H76.4255V69.576H71.0015V77.576ZM72.4255 73.576V97H80.4255V73.576H72.4255ZM76.4255 93H71.0015V101H76.4255V93ZM75.0015 97V95.272H67.0015V97H75.0015ZM67.6844 93.0366C67.6141 93.1409 67.543 93.2075 67.3904 93.2757C67.2007 93.3604 66.7971 93.48 66.0575 93.48V101.48C69.2492 101.48 72.3658 100.405 74.3186 97.5074L67.6844 93.0366ZM66.0575 93.48H65.0495V101.48H66.0575V93.48ZM65.0495 93.48C64.4013 93.48 64.0035 93.3925 63.7831 93.3143C63.5847 93.2439 63.5223 93.1801 63.5009 93.1573C63.4677 93.1219 63.0975 92.6995 63.0975 91.144H55.0975C55.0975 93.8125 55.7193 96.5581 57.6701 98.6347C59.665 100.758 62.3827 101.48 65.0495 101.48V93.48ZM63.0975 91.144V79.432H55.0975V91.144H63.0975ZM63.0975 79.432C63.0975 77.8765 63.4677 77.4541 63.5009 77.4187C63.5223 77.3959 63.5847 77.3321 63.7831 77.2617C64.0035 77.1835 64.4013 77.096 65.0495 77.096V69.096C62.3827 69.096 59.665 69.8177 57.6701 71.9413C55.7193 74.0179 55.0975 76.7635 55.0975 79.432H63.0975ZM65.0495 77.096H66.0575V69.096H65.0495V77.096ZM66.0575 77.096C66.7971 77.096 67.2007 77.2156 67.3904 77.3003C67.543 77.3685 67.6141 77.4351 67.6844 77.5394L74.3186 73.0686C72.3658 70.171 69.2492 69.096 66.0575 69.096V77.096ZM75.0015 75.304V73.576H67.0015V75.304H75.0015ZM73.9935 91.912V78.664H65.9935V91.912H73.9935ZM73.9935 78.664C73.9935 77.2778 73.4256 76.0552 72.5339 75.1636L66.8771 80.8204C66.6543 80.5976 66.419 80.2859 66.2449 79.8797C66.0688 79.4688 65.9935 79.0499 65.9935 78.664H73.9935ZM72.7784 75.4313C71.8373 74.302 70.4913 73.704 69.0815 73.704V81.704C68.6991 81.704 68.2335 81.6295 67.7533 81.4078C67.2703 81.1849 66.8978 80.8709 66.6326 80.5527L72.7784 75.4313ZM69.0815 73.704H66.4415V81.704H69.0815V73.704ZM66.4415 73.704C65.0553 73.704 63.8327 74.2719 62.9411 75.1636L68.5979 80.8204C68.3751 81.0432 68.0634 81.2785 67.6572 81.4526C67.2463 81.6287 66.8274 81.704 66.4415 81.704V73.704ZM62.6966 75.4313C61.9219 76.3609 61.5295 77.497 61.5295 78.664H69.5295C69.5295 78.9594 69.482 79.2977 69.3565 79.6493C69.2304 80.0023 69.0479 80.3061 68.8424 80.5527L62.6966 75.4313ZM61.5295 78.664V91.912H69.5295V78.664H61.5295ZM61.5295 91.912C61.5295 93.079 61.9219 94.2151 62.6966 95.1447L68.8424 90.0233C69.0479 90.2699 69.2304 90.5737 69.3565 90.9267C69.482 91.2783 69.5295 91.6166 69.5295 91.912H61.5295ZM62.9411 95.4124C63.8327 96.3041 65.0553 96.872 66.4415 96.872V88.872C66.8274 88.872 67.2463 88.9473 67.6572 89.1234C68.0634 89.2975 68.3751 89.5328 68.5979 89.7556L62.9411 95.4124ZM66.4415 96.872H69.0815V88.872H66.4415V96.872ZM69.0815 96.872C70.4913 96.872 71.8373 96.274 72.7784 95.1447L66.6326 90.0233C66.8978 89.7051 67.2703 89.3911 67.7533 89.1682C68.2335 88.9465 68.6991 88.872 69.0815 88.872V96.872ZM72.5339 95.4124C73.4256 94.5208 73.9935 93.2982 73.9935 91.912H65.9935C65.9935 91.5261 66.0688 91.1072 66.2449 90.6963C66.419 90.2901 66.6543 89.9784 66.8771 89.7556L72.5339 95.4124ZM92.0326 73.096H96.0326V69.096H92.0326V73.096ZM92.0326 79.336V83.336H96.0326V79.336H92.0326ZM87.2326 97V101H91.2326V97H87.2326ZM80.8006 97H76.8006V101H80.8006V97ZM80.8006 73.576V69.576H76.8006V73.576H80.8006ZM86.6566 73.576H90.6566V69.576H86.6566V73.576ZM86.6566 75.832H82.6566L90.2217 77.6458L86.6566 75.832ZM90.7846 77.096H92.0326V69.096H90.7846V77.096ZM88.0326 73.096V79.336H96.0326V73.096H88.0326ZM92.0326 75.336H88.8646V83.336H92.0326V75.336ZM88.8646 75.336C87.6741 75.336 86.0535 75.6492 84.7715 76.9689C83.5104 78.267 83.2326 79.868 83.2326 81.016H91.2326C91.2326 81.044 91.2268 81.805 90.5097 82.5431C89.7718 83.3028 88.9671 83.336 88.8646 83.336V75.336ZM83.2326 81.016V97H91.2326V81.016H83.2326ZM87.2326 93H80.8006V101H87.2326V93ZM84.8006 97V73.576H76.8006V97H84.8006ZM80.8006 77.576H86.6566V69.576H80.8006V77.576ZM82.6566 73.576V75.832H90.6566V73.576H82.6566ZM90.2217 77.6458C90.3345 77.4242 90.4313 77.2887 90.4963 77.2115C90.5589 77.1371 90.5937 77.1146 90.5945 77.1142C90.5961 77.1131 90.595 77.1139 90.5923 77.1152C90.5896 77.1164 90.5904 77.1157 90.597 77.1138C90.6079 77.1107 90.664 77.096 90.7846 77.096V69.096C89.1723 69.096 87.586 69.5105 86.1748 70.4458C84.7889 71.3644 83.7943 72.6368 83.0915 74.0182L90.2217 77.6458Z" fill="#151515" mask="url(#path-3-outside-2_7_241)"/>
<mask id="path-5-outside-3_7_241" maskUnits="userSpaceOnUse" x="0" y="44" width="35" height="32" fill="black">
<rect fill="white" y="44" width="35" height="32"/>
<path d="M17.416 64.32L13.864 72H7.192L13.72 59.52L7.624 48.576H14.632L17.416 55.584L20.2 48.576H27.208L21.112 59.52L27.64 72H20.968L17.416 64.32Z"/>
</mask>
<path d="M17.416 64.32L13.864 72H7.192L13.72 59.52L7.624 48.576H14.632L17.416 55.584L20.2 48.576H27.208L21.112 59.52L27.64 72H20.968L17.416 64.32Z" fill="#F79F09"/>
<path d="M17.416 64.32L21.0465 62.6409L17.416 54.7911L13.7855 62.6409L17.416 64.32ZM13.864 72V76H16.4211L17.4945 73.6791L13.864 72ZM7.192 72L3.64761 70.146L0.58552 76H7.192V72ZM13.72 59.52L17.2644 61.374L18.2654 59.4603L17.2145 57.5735L13.72 59.52ZM7.624 48.576V44.576H0.817252L4.12954 50.5225L7.624 48.576ZM14.632 48.576L18.3494 47.0992L17.347 44.576H14.632V48.576ZM17.416 55.584L13.6986 57.0608L17.416 66.4184L21.1334 57.0608L17.416 55.584ZM20.2 48.576V44.576H17.485L16.4826 47.0992L20.2 48.576ZM27.208 48.576L30.7025 50.5225L34.0148 44.576H27.208V48.576ZM21.112 59.52L17.6175 57.5735L16.5666 59.4603L17.5676 61.374L21.112 59.52ZM27.64 72V76H34.2465L31.1844 70.146L27.64 72ZM20.968 72L17.3375 73.6791L18.4109 76H20.968V72ZM13.7855 62.6409L10.2335 70.3209L17.4945 73.6791L21.0465 65.9991L13.7855 62.6409ZM13.864 68H7.192V76H13.864V68ZM10.7364 73.854L17.2644 61.374L10.1756 57.666L3.64761 70.146L10.7364 73.854ZM17.2145 57.5735L11.1185 46.6295L4.12954 50.5225L10.2255 61.4665L17.2145 57.5735ZM7.624 52.576H14.632V44.576H7.624V52.576ZM10.9146 50.0528L13.6986 57.0608L21.1334 54.1072L18.3494 47.0992L10.9146 50.0528ZM21.1334 57.0608L23.9174 50.0528L16.4826 47.0992L13.6986 54.1072L21.1334 57.0608ZM20.2 52.576H27.208V44.576H20.2V52.576ZM23.7135 46.6295L17.6175 57.5735L24.6065 61.4665L30.7025 50.5225L23.7135 46.6295ZM17.5676 61.374L24.0956 73.854L31.1844 70.146L24.6564 57.666L17.5676 61.374ZM27.64 68H20.968V76H27.64V68ZM24.5985 70.3209L21.0465 62.6409L13.7855 65.9991L17.3375 73.6791L24.5985 70.3209Z" fill="#151515" mask="url(#path-5-outside-3_7_241)"/>
</svg>
